<?xml version="1.0" encoding="utf-8"?>
<!-- Generator: Adobe Illustrator 16.0.0, SVG Export Plug-In . SVG Version: 6.00 Build 0)  -->
<!DOCTYPE svg PUBLIC "-//W3C//DTD SVG 1.1//EN" "http://www.w3.org/Graphics/SVG/1.1/DTD/svg11.dtd">
<svg version="1.1" id="Layer_1" xmlns="http://www.w3.org/2000/svg" xmlns:xlink="http://www.w3.org/1999/xlink" x="0px" y="0px"
	 width="20px" height="13px" viewBox="0 0 153.259 92.131" enable-background="new 0 0 153.259 92.131"
	 xml:space="preserve">
<g>
	<defs>
		<rect id="SVGID_1_" width="153.259" height="92.131"/>
	</defs>
	<clipPath id="SVGID_2_">
		<use xlink:href="#SVGID_1_"  overflow="invisible"/>
	</clipPath>
	<path clip-path="url(#SVGID_2_)" fill-rule="evenodd" clip-rule="evenodd" fill="#666666" d="M86.754,92.096
		c2.604-7.205,5.04-13.938,7.474-20.674c4.662-12.903,9.362-25.794,13.942-38.727c0.698-1.971,1.637-2.786,3.77-2.636
		c2.772,0.193,5.566,0.047,8.807,0.047c-3.946,10.945-7.77,21.551-11.728,32.527c8.021,0.717,15.473,0.623,21.788-4.724
		c1.071-0.907,2.143-2.086,2.631-3.363c2.562-6.694,5.1-13.409,7.301-20.228c1.072-3.322-0.245-5.814-3.435-7.217
		c-2.004-0.882-4.275-1.622-6.427-1.624c-12.235-0.011-24.471,0.197-36.705,0.426c-0.738,0.013-1.894,0.688-2.127,1.323
		c-3.162,8.61-6.354,17.218-9.197,25.936c-1.544,4.731,0.196,7.441,4.968,8.858c1.441,0.428,2.949,0.627,4.833,1.013
		c-0.721,2.003-1.405,4.063-2.231,6.063c-0.158,0.381-0.924,0.804-1.337,0.738c-4.232-0.657-8.606-0.937-12.634-2.26
		c-5.083-1.668-7.458-6.546-5.907-11.828c1.951-6.648,4.457-13.136,6.744-19.686c1.126-3.227,2.299-6.438,3.581-10.023
		c-1.884-0.127-3.479-0.234-5.077-0.341c0.711-4.664,1.545-5.745,5.728-6.541c1.608-0.306,2.327-1.027,2.783-2.468
		c0.674-2.127,1.578-4.182,2.238-6.313c0.455-1.472,1.271-1.958,2.793-1.901c3.013,0.113,6.033,0.033,9.423,0.033
		c-1.197,3.475-2.268,6.58-3.473,10.076c1.379,0,2.317,0.001,3.256,0c12.399-0.004,24.801-0.115,37.196,0.064
		c3.221,0.047,6.548,0.63,9.614,1.622c6.51,2.104,9.269,6.954,7.277,13.426c-2.226,7.229-4.711,14.443-7.868,21.302
		c-3.635,7.9-10.692,12.002-18.997,13.49c-5.306,0.95-10.784,1.048-16.195,1.24c-2.341,0.082-3.553,0.74-4.315,3.062
		c-1.915,5.835-4.161,11.563-6.194,17.36c-0.496,1.415-1.217,2.032-2.769,1.977C93.262,92.02,90.232,92.096,86.754,92.096"/>
	<path clip-path="url(#SVGID_2_)" fill-rule="evenodd" clip-rule="evenodd" fill="#666666" d="M15.797,69.606
		c1.031-5.303,2.819-6.694,9.09-6.848c5.835-0.142,11.676-0.016,17.512-0.118c3.709-0.063,7.375-0.543,10.294-3.155
		c0.991-0.888,1.917-1.968,2.524-3.14c1.595-3.076,0.687-5.884-2.622-6.927c-4.003-1.26-8.181-1.975-12.294-2.87
		c-1.943-0.422-3.923-0.671-5.871-1.069c-5.423-1.11-7.794-5.22-6.146-10.846c2.499-8.523,8.417-13.584,16.954-14.975
		c5.938-0.968,12.064-0.831,18.111-1.065c3.48-0.135,6.969-0.024,10.492-0.024c-0.644,4.712-1.116,5.585-5.132,6.305
		c-3.661,0.658-7.433,0.723-11.162,0.964c-3.577,0.232-7.209,0.066-10.724,0.642c-1.808,0.297-3.776,1.5-5.035,2.877
		c-2.307,2.524-1.199,5.117,2.322,5.95c3.798,0.899,7.641,1.604,11.449,2.465c2.482,0.56,4.997,1.079,7.392,1.916
		c5.219,1.823,7.154,5.923,5.554,11.218c-3.221,10.657-13.188,18.715-23.782,18.776c-8.794,0.053-17.588,0.149-26.383,0.203
		C17.558,69.892,16.774,69.718,15.797,69.606"/>
	<path clip-path="url(#SVGID_2_)" fill-rule="evenodd" clip-rule="evenodd" fill="#666666" d="M30.036,18.57
		c-1.059,2.981-1.967,5.585-2.907,8.178c-4.945,13.643-9.926,27.272-14.812,40.937c-0.613,1.714-1.378,2.356-3.268,2.203
		C6.222,69.662,3.362,69.83,0,69.83c0.935-2.617,1.717-4.829,2.516-7.035C7.597,48.777,12.71,34.77,17.729,20.731
		c0.578-1.616,1.319-2.29,3.081-2.201C23.739,18.677,26.68,18.57,30.036,18.57"/>
	<path clip-path="url(#SVGID_2_)" fill-rule="evenodd" clip-rule="evenodd" fill="#666666" d="M26.608,12.467
		c-3.287,0.025-4.654-1.432-4.434-4.727c0.292-4.351,6.499-8.815,10.442-7.509c2.18,0.721,3.172,2.318,2.83,4.553
		C34.816,8.904,30.754,12.436,26.608,12.467"/>
</g>
</svg>
