<svg height="20pt" preserveAspectRatio="xMidYMid meet" viewBox="0 0 700 700" width="20pt" fill="#666666" xmlns="http://www.w3.org/2000/svg"><g transform="matrix(.1 0 0 -.1 0 700)"><path d="m3389 6996c-2-2-42-7-89-10-271-21-518-69-790-153-744-229-1405-704-1857-1334-142-198-294-467-378-669-58-139-95-233-92-236 1-2 14 18 27 44 39 75 166 280 228 368 542 768 1336 1293 2252 1488 76 16 129 26 165 30 11 2 38 6 60 10 42 7 79 11 185 23 87 10 585 10 685 0 44-4 112-13 150-18 39-6 83-12 100-14 246-35 643-152 886-263 275-125 463-234 679-391 171-125 263-204 436-376 227-225 394-438 556-709 43-72 78-126 78-120 0 5-4 36-9 69s-12 80-15 105-8 59-11 75c-2 17-7 48-10 70s-15 103-26 180-22 160-25 185-7 52-9 60-7 42-11 75c-3 33-8 62-9 65-2 3-6 34-10 70-3 36-8 72-10 80s-7 35-10 60-8 56-10 70c-3 14-7 45-10 70-6 51-14 107-19 135-2 11-7 45-11 75-3 30-8 66-10 80-3 14-7 45-10 69-3 23-7 55-9 70-20 123-11 135-98-128-44-133-83-241-86-241-4 0-30 22-57 48-160 150-427 346-640 469-307 177-632 311-971 398-142 37-147 38-274 61-47 8-96 17-110 19-14 3-65 10-115 15-49 6-103 13-120 16-35 6-571 15-576 10z"/><path d="m3360 5275c-241-44-441-166-550-333-18-29-35-50-37-48s-6 75-9 162-7 161-10 163c-3 3-124 6-270 6h-264v-1927c0-1061 3-1928 8-1929 24-3 539-4 550-1 9 3 12 176 12 818v815l32-38c138-161 300-260 525-319 108-28 166-35 313-35 360-1 631 126 839 394 142 184 236 432 269 712 9 79 9 363-1 445-62 541-346 930-781 1071-170 54-458 75-626 44zm286-445c100-24 157-49 231-103 250-185 378-578 318-981-27-181-84-331-166-437-144-186-311-263-554-255-163 6-287 47-400 133-136 105-254 325-291 544-10 60-13 352-3 409 5 30 11 69 14 85 27 165 115 344 218 445 151 147 409 212 633 160z"/><path d="m6620 2462c-91-172-241-394-394-581-101-123-384-404-506-502-363-292-747-503-1165-641-108-35-278-84-330-94-11-2-54-10-95-19-131-26-243-43-320-50-41-4-86-9-100-12-14-2-128-6-255-7-339-5-613 24-900 95-44 11-92 22-107 24-51 9-358 116-465 161-284 121-549 274-788 454-134 102-143 109-260 214-267 241-537 574-711 879-21 37-42 67-47 67-4 0-6-3-4-7 3-5 8-30 11-58 4-27 9-61 11-75s6-47 10-75c3-27 10-77 15-110s12-77 14-97c3-21 7-53 10-70 3-18 8-49 10-68 3-19 12-87 21-150s18-128 20-145c4-31 32-223 41-285 2-19 16-116 30-215s27-191 29-205c3-14 7-50 11-80 15-144 13-145 98 110 43 129 81 239 84 244s10 3 16-5 47-45 91-84c44-38 82-73 85-76s55-43 115-89c588-447 1287-713 2040-776 166-14 598-8 691 10 11 2 51 7 89 11 38 3 72 8 75 10 3 1 25 6 50 9s56 8 70 11 39 8 55 11c78 13 292 70 405 106 638 205 1211 587 1641 1093 19 22 37 42 40 45 18 16 168 223 231 321 150 231 255 440 357 708 11 30 19 56 18 57-1 2-18-27-37-64z"/></g></svg>