<?xml version="1.0" encoding="UTF-8"?>
<svg xmlns="http://www.w3.org/2000/svg" xmlns:xlink="http://www.w3.org/1999/xlink" width="60px" height="40px" viewBox="0 0 60 40" version="1.1">
<g id="surface1">
<rect x="0" y="0" width="60" height="40" style="fill:rgb(60%,60%,60%);fill-opacity:1;stroke:none;"/>
<path style=" stroke:none;fill-rule:nonzero;fill:rgb(40%,40%,40%);fill-opacity:1;" d="M 0 0 L 60 0 L 60 26.667969 L 0 26.667969 Z M 0 0 "/>
<path style=" stroke:none;fill-rule:nonzero;fill:rgb(58.823529%,100%,100%);fill-opacity:1;" d="M 0 0 L 60 0 L 60 13.332031 L 0 13.332031 Z M 0 0 "/>
<path style=" stroke:none;fill-rule:nonzero;fill:rgb(58.823529%,100%,100%);fill-opacity:1;" d="M 26.230469 9.398438 L 9.757812 9.398438 L 9.699219 9.9375 C 9.6875 10.054688 9.398438 12.867188 9.398438 19.050781 C 9.398438 21.953125 10.382812 24.515625 12.316406 26.664062 C 13.675781 28.171875 15.445312 29.4375 17.734375 30.539062 L 17.996094 30.664062 L 18.253906 30.539062 C 20.542969 29.4375 22.316406 28.171875 23.671875 26.664062 C 25.609375 24.515625 26.589844 21.953125 26.589844 19.050781 C 26.589844 12.867188 26.300781 10.054688 26.289062 9.9375 Z M 26.230469 9.398438 "/>
<path style=" stroke:none;fill-rule:nonzero;fill:rgb(60%,60%,60%);fill-opacity:1;" d="M 17.996094 30 C 14.707031 28.414062 10 25.269531 10 19.050781 C 10 12.828125 10.296875 10 10.296875 10 L 25.691406 10 C 25.691406 10 25.988281 12.828125 25.988281 19.050781 C 25.988281 25.269531 21.285156 28.414062 17.996094 30 Z M 17.996094 30 "/>
<path style=" stroke:none;fill-rule:nonzero;fill:rgb(58.823529%,100%,100%);fill-opacity:1;" d="M 18.699219 17.417969 C 19.589844 17.433594 21.328125 17.46875 22.875 16.949219 C 22.875 16.949219 22.832031 17.503906 22.832031 18.148438 C 22.832031 18.792969 22.875 19.347656 22.875 19.347656 C 21.457031 18.871094 19.703125 18.863281 18.699219 18.875 L 18.699219 22.3125 L 17.292969 22.3125 L 17.292969 18.875 C 16.289062 18.863281 14.535156 18.871094 13.117188 19.347656 C 13.117188 19.347656 13.15625 18.792969 13.15625 18.148438 C 13.15625 17.503906 13.117188 16.949219 13.117188 16.949219 C 14.664062 17.46875 16.402344 17.433594 17.292969 17.417969 L 17.292969 15.261719 C 16.480469 15.253906 15.308594 15.292969 13.988281 15.734375 C 13.988281 15.734375 14.027344 15.179688 14.027344 14.535156 C 14.027344 13.890625 13.988281 13.335938 13.988281 13.335938 C 15.308594 13.78125 16.476562 13.820312 17.289062 13.8125 C 17.246094 12.445312 16.847656 10.722656 16.847656 10.722656 C 16.847656 10.722656 17.667969 10.789062 17.996094 10.789062 C 18.324219 10.789062 19.140625 10.722656 19.140625 10.722656 C 19.140625 10.722656 18.746094 12.445312 18.703125 13.8125 C 19.515625 13.820312 20.683594 13.78125 22.003906 13.335938 C 22.003906 13.335938 21.960938 13.890625 21.960938 14.535156 C 21.960938 15.179688 22.003906 15.734375 22.003906 15.734375 C 20.679688 15.292969 19.511719 15.253906 18.699219 15.261719 Z M 18.699219 17.417969 "/>
<path style=" stroke:none;fill-rule:nonzero;fill:rgb(40%,40%,40%);fill-opacity:1;" d="M 17.992188 21.941406 C 16.335938 21.941406 15.449219 24.238281 15.449219 24.238281 C 15.449219 24.238281 14.957031 23.148438 13.605469 23.148438 C 12.691406 23.148438 12.015625 23.960938 11.589844 24.714844 C 13.253906 27.363281 15.90625 28.996094 17.992188 30 C 20.082031 28.996094 22.738281 27.363281 24.402344 24.714844 C 23.972656 23.960938 23.296875 23.148438 22.382812 23.148438 C 21.03125 23.148438 20.539062 24.238281 20.539062 24.238281 C 20.539062 24.238281 19.652344 21.941406 17.992188 21.941406 Z M 17.992188 21.941406 "/>
</g>
</svg>
