<?xml version="1.0" encoding="UTF-8" standalone="no"?>
<svg
   id="a"
   width="387"
   height="299"
   viewBox="0 0 386.99999 299"
   version="1.1"
   sodipodi:docname="worki-logo-no-text-dark.svg"
   inkscape:version="1.2 (dc2aedaf03, 2022-05-15)"
   xmlns:inkscape="http://www.inkscape.org/namespaces/inkscape"
   xmlns:sodipodi="http://sodipodi.sourceforge.net/DTD/sodipodi-0.dtd"
   xmlns="http://www.w3.org/2000/svg"
   xmlns:svg="http://www.w3.org/2000/svg">
  <defs
     id="defs62" />
  <sodipodi:namedview
     id="namedview60"
     pagecolor="#ffffff"
     bordercolor="#000000"
     borderopacity="0.25"
     inkscape:showpageshadow="2"
     inkscape:pageopacity="0.0"
     inkscape:pagecheckerboard="0"
     inkscape:deskcolor="#d1d1d1"
     showgrid="false"
     inkscape:zoom="1.048567"
     inkscape:cx="252.24902"
     inkscape:cy="64.850409"
     inkscape:window-width="1797"
     inkscape:window-height="753"
     inkscape:window-x="134"
     inkscape:window-y="99"
     inkscape:window-maximized="0"
     inkscape:current-layer="a" />
  <g
     id="g41">
    <rect
       x="0"
       y="0"
       width="387"
       height="299"
       rx="72.949997"
       ry="72.949997"
       fill="#666666"
       id="rect33" />
    <path
       d="m 247.34,112.33 c 9.76,0 17.66,-7.91 17.66,-17.66 0,-9.75 -7.91,-17.66 -17.66,-17.66 -9.75,0 -17.66,7.91 -17.66,17.66 0,9.75 7.91,17.66 17.66,17.66 z"
       fill="#ffffff"
       id="path35" />
    <path
       d="m 304.22,111.98 c -22.01,24.82 -39.83,52.77 -55.24,81.93 -13.06,-22.76 -28,-44.56 -47.47,-62.69 -2.16,-1.99 -4.94,-3.01 -7.72,-3.03 -2.96,-0.14 -5.98,0.85 -8.33,3.03 -13.81,12.76 -25.25,27.52 -35.27,42.75 -4.29,6.54 -8.33,13.19 -12.19,19.9 -15.41,-29.14 -33.22,-57.08 -55.22,-81.89 -10.55,-11 -27.14,2.8 -18.24,15.16 25.05,32.34 42.97,69.8 58.02,107.87 2.89,5.53 7.28,8.32 11.85,9.04 7.47,1.56 15.22,-2.37 18.2,-9.69 11.1,-26.98 23.21,-54.13 40.87,-77.08 17.66,22.94 29.78,50.1 40.88,77.08 3.13,7.78 11.78,11.69 19.53,9.36 4.83,-1.25 9.02,-4.7 10.98,-9.71 7.47,-19.05 15.74,-37.75 25.17,-55.72 9.44,-17.96 20.07,-35.23 32.37,-51.08 9.02,-12.34 -7.64,-26.27 -18.19,-15.22 z"
       fill="#ffffff"
       id="path37" />
    <path
       d="m 140.88,102.87 c 12.77,0 23.12,-10.35 23.12,-23.12 0,-12.77 -10.35,-23.12 -23.12,-23.12 -12.77,0 -23.12,10.35 -23.12,23.12 0,12.77 10.35,23.12 23.12,23.12 z"
       fill="#ffffff"
       id="path39" />
  </g>
</svg>
